<svg width="200" height="200" viewBox="0 0 200 200" fill="none" xmlns="http://www.w3.org/2000/svg">
<path d="M84.043 45.4297C83.2422 45.8398 79.4922 49.668 78.7109 50.8984C77.8125 52.3242 77.3438 54.0625 77.3438 55.9375C77.3438 58.5742 78.0859 60.4492 80.2148 63.1836C81.8945 65.3125 82.1094 65.8398 81.9727 67.5781C81.8359 69.6289 82.2656 70.6445 83.5938 71.4648C85.1953 72.4219 87.3438 71.6797 88.2031 69.8633C88.5938 69.0234 88.6719 68.5352 88.6719 66.9727C88.6719 64.082 88.1445 62.6758 86.1328 60.1563C84.7461 58.418 84.1406 57.168 84.1406 56.0547C84.1406 54.8438 84.5508 54.082 86.1523 52.4023C88.2031 50.2344 88.6719 49.5117 88.6719 48.4961C88.6719 46.1133 86.1133 44.4141 84.043 45.4297Z" fill="#2A3C4A"/>
<path d="M97.7148 45.4297C97.1484 45.7227 95.0976 47.832 93.5156 49.8242C93.1054 50.3125 92.5 51.3086 92.1484 52.0703C91.5429 53.3594 91.1133 53.5156 91.1133 55.6641C91.1328 57.6367 91.582 58.0664 92.0508 59.2774C92.3633 60.0195 93.2617 61.6211 94.0625 62.832C95.8789 65.5274 96.0937 66.0938 95.9765 67.8711C95.8789 69.043 95.9375 69.3555 96.3281 70.1172C97.5781 72.5391 100.879 72.4024 102.168 69.8633C102.676 68.8672 102.871 66.4063 102.559 64.7852C102.285 63.2617 101.699 62.1875 99.9609 59.8438C98.2422 57.5195 97.8711 56.543 98.2422 55.1367C98.4765 54.1211 98.9648 53.3985 100.41 51.8555C101.973 50.1953 102.344 49.4922 102.344 48.3203C102.344 47.3828 102.266 47.1875 101.621 46.4649C100.43 45.1563 99.0429 44.7852 97.7148 45.4297Z" fill="#2A3C4A"/>
<path d="M111.894 45.6641C110.84 46.3477 107.598 49.9219 106.816 51.2695C105.547 53.457 105.195 55.7422 105.762 58.1641C106.133 59.7461 106.582 60.625 108.203 62.8906C110.117 65.5859 110.156 65.7031 110.098 67.8125C110.059 69.3555 110.117 69.7266 110.469 70.3125C111.348 71.8359 113.652 72.3633 115.098 71.3867C116.504 70.4102 117.148 68.1836 116.816 65.4297C116.582 63.5547 116.055 62.4414 114.375 60.1758C111.562 56.4063 111.621 55.2149 114.707 51.9922C115.605 51.0547 116.484 50 116.68 49.668C117.5 48.0469 116.68 46.211 114.805 45.4102C113.73 44.9805 112.891 45.0391 111.894 45.6641Z" fill="#2A3C4A"/>
<path d="M137.324 65.2148C136.68 65.8984 135.41 68.0078 129.629 78.0273C128.457 80.0586 127.461 81.7773 127.441 81.8164C127.402 81.8359 126.465 81.3281 125.371 80.6641C116.602 75.332 105.195 72.5781 95.4101 73.418C86.3281 74.2188 77.7148 77.1484 70.625 81.875C67.8125 83.75 66.6797 84.668 63.8867 87.4023C60.1758 91.0156 57.5781 94.5898 55.2344 99.3164L54.1992 101.367H53.0273C51.6992 101.367 50.7226 101.777 50.1367 102.578C49.043 104.062 49.7851 110.801 51.6601 116.543C55.6055 128.574 63.4375 137.969 74.3359 143.789L76.2695 144.824L76.3672 147.363C76.4453 149.629 76.5234 150.02 77.0117 151.016C77.3047 151.621 77.8906 152.422 78.3203 152.812C79.7656 154.102 79.1406 154.062 99.5117 154.141L117.871 154.199L118.848 153.75C120.117 153.164 121.23 152.09 121.797 150.879C122.187 150.039 122.266 149.609 122.266 147.832C122.266 144.883 122.324 144.707 123.398 144.141C123.906 143.867 125.293 143.027 126.504 142.266C138.34 134.707 146.035 122.871 148.066 109.082C148.594 105.469 148.574 103.867 147.949 102.832C147.324 101.758 146.484 101.367 144.844 101.367H143.555L142.5 99.2578C141.914 98.1055 140.937 96.3672 140.352 95.4102C139.746 94.4336 139.258 93.5352 139.258 93.3984C139.258 93.125 144.609 86.9141 148.047 83.2031C152.012 78.9062 153.711 76.9141 153.828 76.4453C153.887 76.1914 153.828 75.7031 153.691 75.3711C153.398 74.6484 150.234 71.9336 149.492 71.7578C148.516 71.5039 147.793 72.1289 144.707 75.8008C143.047 77.7539 140.684 80.5664 139.453 82.0117C138.203 83.4766 136.582 85.4297 135.859 86.3672C135.117 87.3242 134.453 88.0859 134.375 88.0859C134.316 88.0859 133.965 87.793 133.613 87.4219C133.184 86.9727 132.988 86.6211 133.047 86.3672C133.105 86.1719 135.117 82.7539 137.5 78.7891C143.223 69.3164 143.555 68.75 143.555 68.125C143.555 67.4023 142.832 66.6211 141.074 65.4492C139.102 64.1406 138.359 64.1016 137.324 65.2148ZM104.59 80.0977C105.566 80.2148 107.754 80.6641 109.473 81.0938C118.125 83.2617 125.723 87.8906 131.484 94.5312C133.457 96.8164 135.937 100.488 135.937 101.152C135.937 101.309 135.02 101.367 132.578 101.328L129.219 101.27L128.555 100.391C121.211 90.6641 109.551 85.0977 97.5586 85.625C91.6406 85.8789 86.9531 87.0312 82.0508 89.4727C77.4023 91.7773 73.4961 95.0195 70.3711 99.1602L68.7109 101.367H65.3125C63.4375 101.367 61.914 101.328 61.914 101.27C61.914 101.211 62.1875 100.664 62.539 100.039C65.0586 95.5078 69.2383 90.9375 73.8281 87.7148C79.5898 83.6328 84.9219 81.5234 92.6758 80.2734C95.2148 79.8633 101.836 79.7656 104.59 80.0977ZM103.906 92.2852C107.656 92.9297 112.109 94.7266 115.625 97.0508C117.207 98.0859 120.312 100.84 120.312 101.191C120.312 101.289 118.281 101.367 115.82 101.367H111.309L109.805 100.488C108.984 100 107.344 99.2969 106.172 98.9062C99.7851 96.8359 93.2422 97.3633 87.539 100.41L85.7422 101.367H81.6406C78.7305 101.367 77.539 101.309 77.539 101.152C77.539 101.035 78.2226 100.254 79.0625 99.4141C83.164 95.332 89.1015 92.6953 95.7617 91.9922C97.8711 91.7773 101.602 91.9141 103.906 92.2852Z" fill="#2A3C4A"/>
<path d="M67.4609 149.98C66.3672 150.449 65.8398 152.129 66.5234 153.086C66.8555 153.574 67.7734 154.102 68.2617 154.102C68.9453 154.102 69.9023 153.477 70.2148 152.813C70.5859 152.012 70.3906 151.094 69.6484 150.41C69.1406 149.922 68.0859 149.727 67.4609 149.98Z" fill="#2A3C4A"/>
<path d="M129.473 150.254C128.203 151.094 128.262 152.93 129.57 153.73C130.352 154.199 130.996 154.199 131.777 153.711C133.086 152.93 133.066 150.977 131.758 150.176C130.957 149.688 130.273 149.707 129.473 150.254Z" fill="#2A3C4A"/>
</svg>
