<svg width="300" height="300" viewBox="0 0 300 300" fill="none" xmlns="http://www.w3.org/2000/svg">
<path d="M126.064 68.1445C124.863 68.7598 119.238 74.502 118.066 76.3477C116.719 78.4863 116.016 81.0938 116.016 83.9063C116.016 87.8613 117.129 90.6738 120.322 94.7754C122.842 97.9688 123.164 98.7598 122.959 101.367C122.754 104.443 123.398 105.967 125.391 107.197C127.793 108.633 131.016 107.52 132.305 104.795C132.891 103.535 133.008 102.803 133.008 100.459C133.008 96.123 132.217 94.0137 129.199 90.2344C127.119 87.627 126.211 85.752 126.211 84.082C126.211 82.2656 126.826 81.123 129.229 78.6035C132.305 75.3516 133.008 74.2676 133.008 72.7441C133.008 69.1699 129.17 66.6211 126.064 68.1445Z" fill="white"/>
<path d="M146.572 68.1445C145.723 68.584 142.647 71.7481 140.273 74.7363C139.658 75.4688 138.75 76.9629 138.223 78.1055C137.314 80.0391 136.67 80.2734 136.67 83.4961C136.699 86.4551 137.373 87.0996 138.076 88.916C138.545 90.0293 139.893 92.4317 141.094 94.2481C143.818 98.291 144.141 99.1406 143.965 101.807C143.818 103.564 143.906 104.033 144.492 105.176C146.367 108.809 151.318 108.604 153.252 104.795C154.014 103.301 154.307 99.6094 153.838 97.1777C153.428 94.8926 152.549 93.2813 149.941 89.7656C147.363 86.2793 146.807 84.8145 147.363 82.7051C147.715 81.1817 148.447 80.0977 150.615 77.7832C152.959 75.293 153.516 74.2383 153.516 72.4805C153.516 71.0742 153.398 70.7813 152.432 69.6973C150.645 67.7344 148.564 67.1777 146.572 68.1445Z" fill="white"/>
<path d="M167.842 68.4961C166.26 69.5215 161.396 74.8828 160.225 76.9043C158.32 80.1855 157.793 83.6133 158.643 87.2461C159.199 89.6191 159.873 90.9375 162.305 94.3359C165.176 98.3789 165.234 98.5547 165.146 101.719C165.088 104.033 165.176 104.59 165.703 105.469C167.021 107.754 170.479 108.545 172.646 107.08C174.756 105.615 175.723 102.275 175.225 98.1445C174.873 95.332 174.082 93.6621 171.563 90.2637C167.344 84.6094 167.432 82.8223 172.061 77.9883C173.408 76.582 174.727 75 175.02 74.502C176.25 72.0703 175.02 69.3164 172.207 68.1152C170.596 67.4707 169.336 67.5586 167.842 68.4961Z" fill="white"/>
<path d="M205.986 97.8223C205.02 98.8477 203.115 102.012 194.443 117.041C192.686 120.088 191.191 122.666 191.162 122.725C191.104 122.754 189.697 121.992 188.057 120.996C174.902 112.998 157.793 108.867 143.115 110.127C129.492 111.328 116.572 115.723 105.938 122.812C101.719 125.625 100.02 127.002 95.8301 131.104C90.2637 136.523 86.3672 141.885 82.8516 148.975L81.2988 152.051H79.541C77.5488 152.051 76.084 152.666 75.2051 153.867C73.5645 156.094 74.6777 166.201 77.4902 174.814C83.4082 192.861 95.1563 206.953 111.504 215.684L114.404 217.236L114.551 221.045C114.668 224.443 114.785 225.029 115.518 226.523C115.957 227.432 116.836 228.633 117.48 229.219C119.648 231.152 118.711 231.094 149.268 231.211L176.807 231.299L178.271 230.625C180.176 229.746 181.846 228.135 182.695 226.318C183.281 225.059 183.398 224.414 183.398 221.748C183.398 217.324 183.486 217.061 185.098 216.211C185.859 215.801 187.939 214.541 189.756 213.398C207.51 202.061 219.053 184.307 222.1 163.623C222.891 158.203 222.861 155.801 221.924 154.248C220.986 152.637 219.727 152.051 217.266 152.051H215.332L213.75 148.887C212.871 147.158 211.406 144.551 210.527 143.115C209.619 141.65 208.887 140.303 208.887 140.098C208.887 139.688 216.914 130.371 222.07 124.805C228.018 118.359 230.566 115.371 230.742 114.668C230.83 114.287 230.742 113.555 230.537 113.057C230.098 111.973 225.352 107.9 224.238 107.637C222.773 107.256 221.689 108.193 217.061 113.701C214.57 116.631 211.025 120.85 209.18 123.018C207.305 125.215 204.873 128.145 203.789 129.551C202.676 130.986 201.68 132.129 201.562 132.129C201.475 132.129 200.947 131.689 200.42 131.133C199.775 130.459 199.482 129.932 199.57 129.551C199.658 129.258 202.676 124.131 206.25 118.184C214.834 103.975 215.332 103.125 215.332 102.188C215.332 101.104 214.248 99.9316 211.611 98.1738C208.652 96.2109 207.539 96.1523 205.986 97.8223ZM156.885 120.146C158.35 120.322 161.631 120.996 164.209 121.641C177.188 124.893 188.584 131.836 197.227 141.797C200.186 145.225 203.906 150.732 203.906 151.729C203.906 151.963 202.529 152.051 198.867 151.992L193.828 151.904L192.832 150.586C181.816 135.996 164.326 127.646 146.338 128.438C137.461 128.818 130.43 130.547 123.076 134.209C116.104 137.666 110.244 142.529 105.557 148.74L103.066 152.051H97.9688C95.1563 152.051 92.8711 151.992 92.8711 151.904C92.8711 151.816 93.2813 150.996 93.8086 150.059C97.5879 143.262 103.857 136.406 110.742 131.572C119.385 125.449 127.383 122.285 139.014 120.41C142.822 119.795 152.754 119.648 156.885 120.146ZM155.859 138.428C161.484 139.395 168.164 142.09 173.438 145.576C175.811 147.129 180.469 151.26 180.469 151.787C180.469 151.934 177.422 152.051 173.73 152.051H166.963L164.707 150.732C163.477 150 161.016 148.945 159.258 148.359C149.678 145.254 139.863 146.045 131.309 150.615L128.613 152.051H122.461C118.096 152.051 116.309 151.963 116.309 151.729C116.309 151.553 117.334 150.381 118.594 149.121C124.746 142.998 133.652 139.043 143.643 137.988C146.807 137.666 152.402 137.871 155.859 138.428Z" fill="white"/>
<path d="M101.191 224.971C99.5508 225.674 98.7598 228.193 99.7852 229.629C100.283 230.361 101.66 231.152 102.393 231.152C103.418 231.152 104.854 230.215 105.322 229.219C105.879 228.018 105.586 226.641 104.473 225.615C103.711 224.883 102.129 224.59 101.191 224.971Z" fill="white"/>
<path d="M194.209 225.381C192.305 226.641 192.393 229.395 194.355 230.596C195.527 231.299 196.494 231.299 197.666 230.566C199.629 229.395 199.6 226.465 197.637 225.264C196.436 224.531 195.41 224.561 194.209 225.381Z" fill="white"/>
</svg>
